# AST/ASF file generated using VICON BodyLanguage
# -----------------------------------------------
:version 1.10
:name VICON
:units
  mass 1.0
  length 0.45
  angle deg
:documentation
   .ast/.asf automatically generated from VICON data using
   VICON BodyBuilder and BodyLanguage model FoxedUp or BRILLIANT.MOD
:root
   order TX TY TZ RX RY RZ
   axis XYZ
   position 0 0 0  
   orientation 0 0 0 
:bonedata
  begin
     id 1 
     name lhipjoint
     direction 0.653368 -0.678499 0.335782 
     length 2.51848 
     axis 0 0 0  XYZ
  end
  begin
     id 2 
     name lfemur
     direction 0.34202 -0.939693 0  
     length 6.57749  
     axis 0 0 20  XYZ
    dof rx ry rz
    limits (-160.0 20.0)
           (-70.0 70.0)
           (-60.0 70.0)
  end
  begin
     id 3 
     name ltibia
     direction 0.34202 -0.939693 0   
     length 7.94618   
     axis 0 0 20   XYZ
    dof rx
    limits (-10.0 170.0)
  end
  begin
     id 4 
     name lfoot
     direction 0.0811271 -0.222895 0.971461   
     length 2.31339   
     axis -90 7.62852e-016 20   XYZ
    dof rx rz
    limits (-45.0 90.0)
           (-70.0 20.0)
  end
  begin
     id 5 
     name ltoes
     direction 1.53568e-011 -4.21885e-011 1   
     length 1.15935   
     axis -90 7.62852e-016 20   XYZ
    dof rx
    limits (-90.0 20.0)
  end
  begin
     id 6 
     name rhipjoint
     direction -0.640058 -0.688614 0.340788   
     length 2.48149  
     axis 0 0 0  XYZ 
  end
  begin
     id 7 
     name rfemur
     direction -0.34202 -0.939693 0   
     length 6.57875   
     axis 0 0 -20   XYZ
    dof rx ry rz
    limits (-160.0 20.0)
           (-70.0 70.0)
           (-70.0 60.0)
  end
  begin
     id 8 
     name rtibia
     direction -0.34202 -0.939693 0   
     length 7.977   
     axis 0 0 -20   XYZ
    dof rx
    limits (-10.0 170.0)
 end
 begin
     id 9 
     name rfoot
     direction -0.0979793 -0.269196 0.958089   
     length 2.19857  
     axis -90 -7.62852e-016 -20   XYZ
    dof rx rz
    limits (-45.0 90.0)
           (-20.0 70.0)
  end
  begin
     id 10 
     name rtoes
     direction -1.53556e-011 -4.21868e-011 1   
     length 1.09838   
     axis -90 -7.62852e-016 -20   XYZ
    dof rx
    limits (-90.0 20.0)
  end
  begin
     id 11 
     name lowerback
     direction 0.0149039 0.998517 -0.0523597   
     length 2.10809   
     axis 0 0 0   XYZ
    dof rx ry rz
    limits (-20.0 45.0)
           (-30.0 30.0)
           (-30.0 30.0)
  end
  begin
     id 12 
     name upperback
     direction -0.00882659 0.999418 -0.0329624   
     length 2.1102   
     axis 0 0 0   XYZ
    dof rx ry rz
    limits (-20.0 45.0)
           (-30.0 30.0)
           (-30.0 30.0)
  end
  begin
     id 13 
     name thorax
     direction -0.0165585 0.999826 -0.0085833   
     length 2.11039   
     axis 0 0 0   XYZ
    dof rx ry rz
    limits (-20.0 45.0)
           (-30.0 30.0)
           (-30.0 30.0)
  end
  begin
     id 14 
     name lowerneck
     direction -0.0130877 0.999911 0.00260353   
     length 1.73253   
     axis 0 0 0   XYZ
    dof rx ry rz
    limits (-20.0 45.0)
           (-30.0 30.0)
           (-30.0 30.0)
  end
  begin
     id 15 
     name upperneck
     direction -0.0348454 0.928205 -0.370435   
     length 1.66692   
     axis 0 0 0   XYZ
    dof rx ry rz
    limits (-20.0 45.0)
           (-30.0 30.0)
           (-30.0 30.0)
  end
  begin
     id 16
     name head
     direction -0.00807754 0.992494 -0.122026  
     length 1.72765  
     axis 0 0 0   XYZ
    dof rx ry rz
    limits (-20.0 45.0)
           (-30.0 30.0)
           (-30.0 30.0)
  end
  begin
     id 17 
     name lclavicle
     direction 0.987582 0.144023 0.0627671  
     length 3.49235  
     axis 0 0 0   XYZ
    dof ry rz
    limits (-20.0 10.0)
           (0.0 20.0)
  end
  begin
     id 18 
     name lhumerus
     direction 1 -4.48958e-011 -1.45183e-018   
     length 5.41917   
     axis 180 -30 -90   XYZ
    dof rx ry rz
    limits (-60.0 90.0)
           (-90.0 90.0)
           (-90.0 90.0)
  end
  begin
     id 19
     name lradius
     direction 1 -4.48999e-011 5.75106e-027   
     length 2.44373   
     axis 180 -30 -90   XYZ
    dof rx
    limits (-10.0 170.0)
  end
  begin
     id 20
     name lwrist
     direction 1 -4.48987e-011 1.53461e-026   
     length 1.22186   
     axis -1.09697e-014 90 90   XYZ
    dof ry
    limits (-180.0 0.0)
 end
  begin
     id 21 
     name lhand
     direction 1 -4.48881e-011 3.06923e-026   
     length 0.727502   
     axis -1.95843e-014 90 90   XYZ
    dof rx rz
    limits (-90.0 90.0)
           (-45.0 45.0)
  end
  begin
     id 22 
     name lfingers
     direction 1 -4.48907e-011 6.13845e-026   
     length 0.586531   
     axis -3.91686e-014 90 90   XYZ
    dof rx
    limits (0.0 90.0)
  end
  begin
     id 23
     name lthumb
     direction 0.707107 -6.3487e-011 0.707107   
     length 0.842145   
     axis -90 45 2.85299e-015   XYZ
    dof rx rz
    limits (-45.0 45.0)
           (-45.0 45.0)
  end
  begin
     id 24 
     name rclavicle
     direction -0.980998 0.169556 0.0943023   
     length 3.29272  
     axis 0 0 0   XYZ 
    dof ry rz
    limits (-10.0 20.0)
           (-20.0 0.0)
  end
  begin
     id 25 
     name rhumerus
     direction -1 -1.83355e-005 2.45537e-005  
     length 5.58976   
     axis 180 30 90   XYZ
    dof rx ry rz
    limits (-90.0 60.0)
           (-90.0 90.0)
           (-90.0 90.0)
  end
  begin
     id 26 
     name rradius
     direction -1 -4.48967e-011 5.97228e-027   
     length 2.4806   
     axis 180 30 90   XYZ
    dof rx
    limits (-10.0 170.0)
  end
  begin
     id 27 
     name rwrist
     direction -1 -4.48963e-011 1.53461e-026   
     length 1.2403   
     axis -1.09697e-014 -90 -90   XYZ
    dof ry
    limits (-180.0 0.0)
  end
  begin
     id 28
     name rhand
     direction -1 -4.48881e-011 3.06923e-026   
     length 0.816009   
     axis -1.95843e-014 -90 -90   XYZ
    dof rx rz
    limits (-90.0 90.0)
           (-45.0 45.0)
  end
  begin
     id 29
     name rfingers
     direction -1 -4.49018e-011 6.13845e-026   
     length 0.657887   
     axis -3.91686e-014 -90 -90   XYZ
    dof rx
    limits (0.0 90.0)
  end
  begin
     id 30
     name rthumb
     direction -0.707107 -6.34872e-011 0.707107   
     length 0.944599   
     axis -90 -45 -2.85299e-015   XYZ
    dof rx rz
    limits (-45.0 45.0)
           (-45.0 45.0)
  end
:hierarchy
  begin
    root lhipjoint rhipjoint lowerback
    lhipjoint lfemur
    lfemur ltibia
    ltibia lfoot
    lfoot ltoes
    rhipjoint rfemur
    rfemur rtibia
    rtibia rfoot
    rfoot rtoes
    lowerback upperback
    upperback thorax
    thorax lowerneck lclavicle rclavicle
    lowerneck upperneck
    upperneck head
    lclavicle lhumerus
    lhumerus lradius
    lradius lwrist
    lwrist lhand lthumb
    lhand lfingers
    rclavicle rhumerus
    rhumerus rradius
    rradius rwrist
    rwrist rhand rthumb
    rhand rfingers
  end

#!OML:ASF F:\VICON\USERDATA\INSTALL\rory3\rory3.ASF
:FULLY-SPECIFIED
:DEGREES
36
root 4.34492 16.568 -15.1184 29.4807 8.50051 -3.84046
lowerback -18.1104 -1.46246 4.41221
upperback -12.5447 -2.45678 4.75518
thorax -3.36629 -1.30878 2.20804
lowerneck -17.6242 -0.970318 2.56243
upperneck 44.4166 -2.67066 -0.231362
head 20.5504 -0.585832 -1.1584
rclavicle -1.04362e-014 -5.56597e-015
rhumerus -52.0695 -0.799525 -73.2377
rradius 22.2387
rwrist -19.7934
rhand -15.2609 20.6805
rfingers 7.12502
rthumb 10.9131 -9.01594
lclavicle -1.04362e-014 -5.56597e-015
lhumerus -58.5609 -2.67902 89.2689
lradius 31.3393
lwrist 6.38387
lhand -1.91311 15.8675
lfingers 7.12502
lthumb 23.7567 44.419
rfemur -42.7958 3.82242 34.8199
rtibia 29.5031
rfoot -30.7675 -31.5603
rtoes 18.5967
lfemur -20.1858 18.8025 -26.5491
ltibia 38.7261
lfoot 42.6583 30.5073
ltoes -4.10854
37
root 4.34632 16.572 -15.1108 29.4432 8.55496 -3.92145
lowerback -18.1049 -1.39692 4.53736
upperback -12.5365 -2.38697 4.71802
thorax -3.36895 -1.2822 2.10874
lowerneck -17.5524 -0.953505 2.55353
upperneck 44.1956 -2.64484 -0.182491
head 20.3752 -0.576248 -1.12121
rclavicle -3.03147e-015 -7.95139e-015
rhumerus -52.2878 -0.827263 -73.3842
rradius 22.2122
rwrist -20.1208
rhand -15.3206 20.5534
rfingers 7.12502
rthumb 10.8556 -9.14601
lclavicle -3.03147e-015 -7.95139e-015
lhumerus -58.7297 -3.04284 89.6615
lradius 31.3842
lwrist 6.61549
lhand -1.87701 16.336
lfingers 7.12502
lthumb 23.7913 44.883
rfemur -42.8439 3.85253 34.8872
rtibia 29.5586
rfoot -30.8749 -31.8991
rtoes 17.9447
lfemur -20.101 18.7401 -26.4304
ltibia 38.6975
lfoot 37.1938 35.6475
ltoes 9.87291
38
root 4.35057 16.5733 -15.1032 29.4752 8.67515 -4.0291
lowerback -18.2044 -1.33485 4.75083
upperback -12.5085 -2.34271 4.69776
thorax -3.29967 -1.2723 1.97075
lowerneck -18.3749 -0.593128 3.1151
upperneck 44.4468 -2.17374 -0.522
head 20.8007 -0.329315 -1.30965
rclavicle -8.19987e-015 1.11319e-014
rhumerus -52.3537 -0.982 -73.4677
rradius 22.0243
rwrist -20.183
rhand -15.5786 19.9784
rfingers 7.12502
rthumb 10.6066 -9.73391
lclavicle -8.19987e-015 1.11319e-014
lhumerus -58.7773 -3.33475 89.992
lradius 31.2231
lwrist 6.56686
lhand -1.51137 16.7403
lfingers 7.12502
lthumb 24.142 45.2412
rfemur -42.9226 3.33674 35.2683
rtibia 29.6291
rfoot -30.4434 -31.6962
rtoes 16.9079
lfemur -20.1049 18.7263 -26.2973
ltibia 38.6661
lfoot 36.2969 38.7921
ltoes 13.8682
39
root 4.35165 16.5726 -15.1011 29.4683 8.71657 -4.04207
lowerback -18.1788 -1.33307 4.7958
upperback -12.5015 -2.34493 4.69638
thorax -3.30752 -1.27627 1.94437
lowerneck -18.5464 -0.392636 3.25159
upperneck 44.3584 -1.8786 -0.576243
head 20.7977 -0.200735 -1.29746
rclavicle 2.31087e-014 -4.77083e-015
rhumerus -52.4089 -1.09053 -73.5263
rradius 21.81
rwrist -19.9926
rhand -15.9244 19.2542
rfingers 7.12502
rthumb 10.273 -10.4749
lclavicle 2.31087e-014 -4.77083e-015
lhumerus -58.8999 -3.32863 90.0928
lradius 31.0975
lwrist 6.13638
lhand -1.35473 16.4064
lfingers 7.12502
lthumb 24.2922 44.8872
rfemur -42.9005 3.27165 35.319
rtibia 29.6352
rfoot -29.4293 -31.8389
rtoes 15.6637
lfemur -20.1047 18.7099 -26.2764
ltibia 38.6856
lfoot 26.0716 44.6372
ltoes 30.1749
40
root 4.35039 16.5721 -15.1015 29.4801 8.76198 -4.09908
lowerback -18.1861 -1.31522 4.86466
upperback -12.4929 -2.33179 4.68812
thorax -3.29843 -1.27388 1.89863
lowerneck -18.3979 -0.299672 3.26307
upperneck 44.1325 -1.74445 -0.507487
head 20.5975 -0.14433 -1.22862
rclavicle -4.99943e-014 1.82882e-014
rhumerus -52.4846 -1.36726 -73.4651
rradius 21.5448
rwrist -19.6592
rhand -16.1029 19.2096
rfingers 7.12502
rthumb 10.1009 -10.528
lclavicle -4.99943e-014 1.82882e-014
lhumerus -59.1214 -3.45314 90.2976
lradius 31.3929
lwrist 5.71698
lhand -1.44893 16.5952
lfingers 7.12502
lthumb 24.2019 45.0881
rfemur -42.901 3.54462 35.2555
rtibia 29.6098
rfoot -29.711 -31.9192
rtoes 16.3988
lfemur -20.1938 18.727 -26.2214
ltibia 38.7446
lfoot 40.1881 34.2641
ltoes 4.1731
41
root 4.35026 16.5726 -15.0989 29.5138 8.64154 -4.00093
lowerback -18.2954 -1.27986 4.70958
upperback -12.3626 -2.28136 4.62775
thorax -3.09151 -1.23817 1.9198
lowerneck -18.4866 -0.233114 3.25182
upperneck 43.9134 -1.6705 -0.409178
head 20.4754 -0.108348 -1.15741
rclavicle 5.28767e-014 -2.14687e-014
rhumerus -52.2482 -1.64667 -73.4349
rradius 21.0586
rwrist -19.2994
rhand -16.1537 19.8175
rfingers 7.12502
rthumb 10.0519 -9.92241
lclavicle 5.28767e-014 -2.14687e-014
lhumerus -59.1449 -3.69546 90.6347
lradius 31.6296
lwrist 5.38904
lhand -1.58534 16.8439
lfingers 7.12502
lthumb 24.071 45.3542
rfemur -42.8869 3.81114 34.9844
rtibia 29.5819
rfoot -30.6239 -31.7026
rtoes 18.4152
lfemur -20.2613 18.8297 -26.4117
ltibia 38.7849
lfoot 40.45 34.0867
ltoes 3.56245
